<?xml version="1.0" encoding="UTF-8" standalone="no"?>
<!-- Created with Inkscape (http://www.inkscape.org/) -->

<svg
   xmlns:dc="http://purl.org/dc/elements/1.1/"
   xmlns:cc="http://creativecommons.org/ns#"
   xmlns:rdf="http://www.w3.org/1999/02/22-rdf-syntax-ns#"
   xmlns:svg="http://www.w3.org/2000/svg"
   xmlns="http://www.w3.org/2000/svg"
   xmlns:sodipodi="http://sodipodi.sourceforge.net/DTD/sodipodi-0.dtd"
   xmlns:inkscape="http://www.inkscape.org/namespaces/inkscape"
   width="209.18764mm"
   height="138.61729mm"
   viewBox="0 0 209.18764 138.61729"
   version="1.1"
   id="svg8"
   inkscape:version="0.92.3 (2405546, 2018-03-11)"
   sodipodi:docname="s-transparent_300x200.svg">
  <defs
     id="defs2">
    <inkscape:perspective
       id="perspective2985"
       inkscape:persp3d-origin="500.00002 : 277.99998 : 1"
       inkscape:vp_z="1000 : 416.99996 : 1"
       inkscape:vp_y="0 : 999.99991 : 0"
       inkscape:vp_x="0 : 416.99996 : 1"
       sodipodi:type="inkscape:persp3d" />
    <defs
       id="defs1">
      <clipPath
         clipPathUnits="userSpaceOnUse"
         id="clipPath">
        <path
           d="M 0,0 H 1000 V 834 H 0 Z"
           id="path2927"
           inkscape:connector-curvature="0" />
      </clipPath>
    </defs>
    <clipPath
       clipPathUnits="userSpaceOnUse"
       id="clipPath30">
      <path
         d="M 0,0 H 1000 V 834 H 0 Z"
         id="path28"
         inkscape:connector-curvature="0" />
    </clipPath>
  </defs>
  <sodipodi:namedview
     id="base"
     pagecolor="#ffffff"
     bordercolor="#666666"
     borderopacity="1.0"
     inkscape:pageopacity="0.0"
     inkscape:pageshadow="2"
     inkscape:zoom="0.7"
     inkscape:cx="478.57268"
     inkscape:cy="345.37317"
     inkscape:document-units="mm"
     inkscape:current-layer="layer1"
     showgrid="false"
     inkscape:window-width="1600"
     inkscape:window-height="1163"
     inkscape:window-x="0"
     inkscape:window-y="0"
     inkscape:window-maximized="1"
     showborder="false" />
  <metadata
     id="metadata5">
    <rdf:RDF>
      <cc:Work
         rdf:about="">
        <dc:format>image/svg+xml</dc:format>
        <dc:type
           rdf:resource="http://purl.org/dc/dcmitype/StillImage" />
        <dc:title></dc:title>
      </cc:Work>
    </rdf:RDF>
  </metadata>
  <g
     inkscape:label="Layer 1"
     inkscape:groupmode="layer"
     id="layer1"
     transform="translate(0.04558763,-53.822304)">
    <g
       id="g4134"
       style="font-style:normal;font-weight:normal;font-size:medium;font-family:sansserif;opacity:1;color-interpolation:auto;fill:#ffffff;fill-opacity:1;stroke:#000000;stroke-width:15.00094509;stroke-linecap:square;stroke-linejoin:miter;stroke-miterlimit:10;stroke-dasharray:none;stroke-dashoffset:0;stroke-opacity:1;color-rendering:auto;image-rendering:auto;shape-rendering:auto;text-rendering:auto"
       inkscape:export-filename="/home/hist/share/www/steps.ua/design/logo/final/logo-tm.png"
       inkscape:export-xdpi="90"
       inkscape:export-ydpi="90"
       transform="matrix(0.37944402,0,0,0.38174602,-39.767638,-66.748484)">
      <g
         id="g4661">
        <path
           id="path4074"
           style="fill:none;fill-opacity:1;stroke:#000000;stroke-width:15.00094509;stroke-miterlimit:10;stroke-dasharray:none"
           d="m 133.93855,598.75253 629.58895,-10e-4 8.66273,-17.67065 6.19862,-18.67821 -634.70933,1.9e-4 z"
           sodipodi:nodetypes="cccccc"
           inkscape:connector-curvature="0" />
        <path
           id="path4068"
           style="fill:none;fill-opacity:1;stroke:#000000;stroke-width:15.00094509;stroke-miterlimit:10;stroke-dasharray:none"
           d="m 673.95295,671.45245 21.82435,-8.81497 20.11776,-12.22097 17.88187,-15.30878 -609.57834,-0.002 -9.73901,36.34803 559.49337,-10e-4 z"
           sodipodi:nodetypes="ccccccc"
           inkscape:connector-curvature="0" />
        <path
           id="path4054"
           style="fill:none;fill-opacity:1;stroke:#000000;stroke-width:15.00094509;stroke-miterlimit:10;stroke-dasharray:none"
           d="m 163.15877,489.70088 -9.73901,36.35149 629.58952,-9.5e-4 -2.20717,-25.24985 -6.55982,-24.48158 -10.71134,-22.97055 -14.53741,-20.76157 -17.92176,-17.92176 -20.76157,-14.53741 -22.97055,-10.71134 -24.48158,-6.55982 -25.25057,-2.20862 -109.0546,3.6e-4 -29.22576,109.05133 z"
           sodipodi:nodetypes="ccccccccccccccc"
           inkscape:connector-curvature="0" />
        <path
           id="path2977"
           style="fill:none;fill-opacity:1;stroke:#000000;stroke-width:15.00094509;stroke-miterlimit:10;stroke-dasharray:none"
           d="m 362.38922,453.41782 109.04987,-0.0715 19.47657,-72.69367 -36.35144,-0.004 -2.99419,-0.22891 -2.91472,-0.71827 -2.75674,-1.18822 -2.52357,-1.62576 -2.22156,-2.01896 -1.85895,-2.35707 -1.44563,-2.6309 -0.99289,-2.83296 -0.51306,-2.95775 -0.0192,-3.00186 0.47512,-2.96407 0.95651,-2.84545 1.41182,-2.64921 1.8286,-2.38069 2.19551,-2.04725 2.50254,-1.65795 2.74129,-1.22344 2.90528,-0.75555 2.99079,-0.26579 382.50921,0.001 48.70014,-181.75174 -523.14938,-0.001 -25.24693,2.20748 -24.48159,6.55982 -22.97055,10.71134 -20.76157,14.53741 -17.92176,17.92176 -14.53741,20.76157 -10.71134,22.97055 -6.55982,24.48158 -2.20898,25.24875 2.20898,25.24876 6.55982,24.48158 10.71134,22.97055 14.53741,20.76157 17.92176,17.92176 20.76157,14.53741 22.97055,10.71134 24.48159,6.55982 25.24875,2.20898"
           sodipodi:nodetypes="cccccccccccccccccccccccccccccccccccccccccccc"
           inkscape:connector-curvature="0" />
      </g>
    </g>
    <g
       transform="matrix(3.6898304,0,0,3.4444675,59986.553,8938.1329)"
       style="font-style:normal;font-weight:normal;font-size:40px;font-family:'Bitstream Vera Sans';color-interpolation:auto;fill:#000000;fill-opacity:1;stroke:#000000;stroke-width:1.11324179;stroke-linecap:square;stroke-linejoin:miter;stroke-miterlimit:10;stroke-dasharray:none;stroke-dashoffset:0;stroke-opacity:1;color-rendering:auto;image-rendering:auto;shape-rendering:auto;text-rendering:auto"
       id="flowRoot2819" />
  </g>
</svg>
